<?xml version="1.0" encoding="utf-8"?>
<!-- Generator: Adobe Illustrator 17.0.0, SVG Export Plug-In . SVG Version: 6.00 Build 0)  -->
<!DOCTYPE svg PUBLIC "-//W3C//DTD SVG 1.1//EN" "http://www.w3.org/Graphics/SVG/1.1/DTD/svg11.dtd">
<svg version="1.1" id="Layer_1" xmlns="http://www.w3.org/2000/svg" xmlns:xlink="http://www.w3.org/1999/xlink" x="0px" y="0px"
	 width="400px" height="288.92px" viewBox="0 0 400 288.92" enable-background="new 0 0 400 288.92" xml:space="preserve">
<g>
	<path fill="#FF0000" d="M197.533,25.392c-0.83-0.6-1.744-1.073-2.713-1.404c-1.017-0.293-2.064-0.472-3.12-0.536
		c-2.148-0.167-4.309,0.101-6.351,0.787c-4.189,1.277-7.526,4.462-8.996,8.587c-0.608,2.163-0.529,4.462,0.225,6.578
		c0.834,2.063,2.235,3.848,4.042,5.148c0.808,0.645,1.573,1.343,2.291,2.088l0.24,0.272l0.03,0.035l0.036,0.05l0.399,0.589
		l0.177,0.31l0.101,0.207l0.218,0.678l0.055,0.271l0.025,0.222c0.02,0.272,0.021,0.544,0.003,0.816l-0.006,0.08l-0.022,0.123
		l-0.094,0.43l-0.121,0.403l-0.027,0.074l-0.095,0.202c-0.421,0.818-1.05,1.51-1.823,2.007c-2.026,1.095-3.939,2.388-5.708,3.862
		c-1.464,1.341-2.45,3.122-2.809,5.074c-0.342,3.072,2.217,5.545,4.041,7.678c0.956,1.02,1.728,2.198,2.282,3.482
		c0.483,1.393,0.232,2.936-0.668,4.104c-1.246,1.785-3.48,2.616-4.344,4.726c-0.949,2.407-0.252,5.151,1.731,6.812
		c1.809,1.1,3.798,1.871,5.876,2.277c0.906,0.305,1.725,0.825,2.387,1.514c0.822,0.852,1.472,1.854,1.916,2.952
		c1.073,2.057,0.783,4.56-0.731,6.317c-1.42,1.077-2.918,2.048-4.481,2.904c-0.924,0.528-1.462,1.541-1.383,2.602
		c0.462,1.549,1.406,2.911,2.694,3.889c0.226,0.209,0.512-0.11,0.326-0.335c-0.931-1.133-3.006-3.317-1.49-4.752
		c0.587-0.479,1.234-0.879,1.926-1.188c0.835-0.419,1.641-0.894,2.412-1.422c0.903-0.604,1.648-1.416,2.169-2.369
		c0.511-1.074,0.726-2.264,0.621-3.449c-0.235-2.525-1.267-4.911-2.947-6.811c-1.538-1.523-3.474-2.583-5.586-3.059l-0.674-0.245
		l-0.251-0.095l-0.211-0.091l-0.612-0.316l-0.292-0.181l-0.084-0.057l-0.111-0.09c-0.324-0.24-0.583-0.557-0.754-0.922L177.144,86
		l-0.112-0.322l-0.246-1.005c-0.168-0.961,0.029-1.95,0.555-2.772c0.564-0.869,1.207-1.683,1.921-2.433
		c1.276-1.279,2.018-2.995,2.076-4.801c-0.044-3.049-2.671-5.354-4.403-7.562c-0.467-0.559-0.876-1.165-1.219-1.807
		c-0.262-0.532-0.454-1.097-0.57-1.679c-0.097-0.649-0.013-1.313,0.243-1.917l0.5-0.931c0.261-0.391,0.555-0.76,0.879-1.101
		c1.691-1.472,3.637-2.62,5.743-3.389c2.282-0.972,3.953-2.987,4.487-5.408c0.354-2.441-0.507-4.901-2.305-6.589
		c-1.39-1.452-3.132-2.539-4.446-4.075l-0.139-0.177l-0.196-0.287l-0.294-0.499l-0.117-0.257l-0.145-0.391l-0.275-0.903
		l-0.166-0.762l-0.011-0.056l-0.007-0.061l-0.039-0.371c-0.045-0.521-0.043-1.046,0.006-1.567l0.005-0.06l0.004-0.023l0.054-0.346
		l0.15-0.68l0.203-0.661l0.072-0.205l0.127-0.307c0.185-0.423,0.401-0.832,0.647-1.224l0.388-0.582l0.035-0.05l0.03-0.037
		l0.298-0.367c0.306-0.365,0.634-0.711,0.982-1.036l0.537-0.48l0.168-0.14l0.328-0.248c0.833-0.612,1.716-1.152,2.641-1.613
		c0.893-0.418,1.816-0.768,2.762-1.049c0.958-0.288,1.943-0.479,2.94-0.568c0.998-0.084,2.002-0.046,2.991,0.112
		c1.04,0.128,2.063,0.369,3.051,0.716C197.663,26.185,197.835,25.597,197.533,25.392z"/>
	<path fill="#FF0000" d="M231.804,22.74c-1.027-2.811-2.874-5.248-5.301-6.998c-2.201-1.686-5.012-2.365-7.74-1.871
		c-5.448,1.157-7.744,5.184-6.637,4.735c2.691-1.342,5.634-2.104,8.639-2.237c2.793,0.25,5.322,1.752,6.877,4.085
		c1.721,2.055,2.464,4.757,2.037,7.403c-0.111,0.538-0.32,1.051-0.617,1.514l-0.378,0.457l-0.278,0.27l-0.188,0.158l-0.044,0.035
		c-0.837,0.64-1.794,1.105-2.643,1.729c-1.183,0.758-2.017,1.953-2.32,3.325c-0.129,1.495,0.305,2.984,1.218,4.175
		c0.844,1.222,1.592,2.508,2.234,3.847c0.641,1.287,0.605,2.807-0.097,4.062c-0.697,0.948-1.493,1.819-2.373,2.599
		c-0.944,0.999-1.585,2.246-1.845,3.596c-0.329,2.64-0.137,5.319,0.567,7.885c0.252,1.081,0.379,2.188,0.379,3.298
		c0.016,0.47-0.042,0.94-0.172,1.393c-0.116,0.539-0.331,1.052-0.635,1.512c-0.736,1.071-1.682,1.981-2.781,2.673
		c-1.214,0.667-2.181,1.709-2.754,2.97c-0.396,1.473-0.297,3.035,0.281,4.445c0.19,0.489,0.273,1.012,0.243,1.536l-0.259,0.865
		c0.103-0.293-0.035,0.064-0.052,0.101l-0.213,0.409l-0.315,0.493l-0.314,0.373c-0.315,0.343-0.655,0.663-1.016,0.957l-0.133,0.106
		l-0.177,0.136l-0.512,0.386l-1.294,0.992c-1.641,1.186-2.741,2.979-3.053,4.979c-0.109,2.548,0.315,5.09,1.246,7.464
		c0.343,1.021,0.566,2.078,0.665,3.151c0.015,0.258,0.014,0.516-0.005,0.774v0.071l-0.012,0.059l-0.072,0.369l-0.102,0.363
		l-0.084,0.219l-0.396,0.67l-0.172,0.196l-0.31,0.313l-0.614,0.483l-0.749,0.435l-0.192,0.093l-0.31,0.129
		c-0.975,0.389-1.995,0.672-3,0.973c-2.19,0.47-4.218,1.507-5.881,3.007c-1.539,2.026-2.016,4.667-1.282,7.104l0.162,0.726
		l0.071,0.355l0.016,0.071l0.006,0.088c0.069,0.478,0.056,0.964-0.038,1.437c-0.371,1.225-1.092,2.315-2.074,3.137
		c-1.553,1.608-3.592,2.66-5.803,2.994c-2.237,0.241-4.393-0.916-5.428-2.913c-0.121-0.211-0.406-0.02-0.313,0.189
		c0.802,2.056,2.688,3.49,4.883,3.714c2.234,0.066,4.434-0.558,6.301-1.787c2.288-1.216,3.992-3.298,4.733-5.78
		c0.168-1.081,0.168-2.181,0-3.262c-0.17-1.054-0.116-2.131,0.16-3.163l0.092-0.216l0.169-0.307l0.133-0.209l0.125-0.152
		l0.492-0.483l0.03-0.032l0.053-0.035l0.394-0.267l0.63-0.362l0.332-0.165l0.203-0.094l1.491-0.547c2.163-0.5,4.244-1.3,6.185-2.379
		c2.186-1.453,3.318-4.053,2.891-6.643c-0.328-2.449-1.357-4.715-1.814-7.137l-0.044-0.266l-0.035-0.317l-0.048-0.902l0.009-0.428
		l0.019-0.273l0.162-0.747l0.104-0.333l0.016-0.049l0.018-0.04l0.305-0.576l0.172-0.269l0.024-0.033l0.017-0.023l0.483-0.542
		l0.864-0.778l0.388-0.3l0.596-0.447c0.797-0.563,1.543-1.195,2.23-1.889c0.752-0.806,1.328-1.758,1.693-2.798
		c0.413-1.446,0.328-2.988-0.242-4.379c-0.194-0.503-0.277-1.041-0.242-1.579l0.044-0.362l0.036-0.124l0.089-0.279l0.181-0.298
		c-0.12,0.177,0.187-0.187,0.228-0.226l0.488-0.384l0.743-0.508c0.67-0.466,1.307-0.975,1.908-1.526
		c1.992-1.828,3.023-4.476,2.793-7.169c-0.159-2.472-1.002-4.921-1.162-7.247c-0.135-1.154-0.018-2.324,0.345-3.428
		c0.551-1.024,1.293-1.932,2.186-2.677c1.13-1.042,1.934-2.389,2.314-3.878c0.283-1.685-0.011-3.416-0.833-4.913
		c-0.693-1.347-1.463-2.653-2.308-3.91c-0.32-0.471-0.559-0.992-0.706-1.541l-0.02-0.495l0.126-0.465l0.175-0.305
		c0.64-0.743,1.423-1.349,2.302-1.784c0.997-0.546,1.882-1.275,2.611-2.148C232.625,28.652,232.935,25.506,231.804,22.74z"/>
	<path fill="#FF0000" d="M180.534,50.161c-1.258-0.233-2.549-0.224-3.804,0.024c-1.202,0.232-2.347,0.696-3.371,1.364
		c-2.162,1.606-3.782,3.834-4.643,6.387c-1.847,6.261-4.123,12.387-6.812,18.335c-1.599,2.999-3.556,5.803-5.252,8.749
		c-1.696,2.946-3.211,5.99-4.836,8.978c-0.779,1.431-1.468,2.91-2.063,4.427c-0.469,1.1-0.828,2.243-1.072,3.413
		c-0.229,1.069-0.206,2.177,0.067,3.236c0.479,1.201,1.203,2.289,2.124,3.196c0.606,0.739,1.28,1.419,1.898,2.146
		c0.626,0.741,1.211,1.507,1.785,2.285c1.137,1.533,2.214,3.109,3.352,4.641c1.103,1.531,2.336,2.964,3.686,4.283
		c0.702,0.638,1.453,1.221,2.245,1.744c0.842,0.521,1.719,0.983,2.624,1.384c0.143,0.081,0.324,0.03,0.405-0.113
		c0.081-0.143,0.03-0.324-0.113-0.405l0,0c-0.603-0.403-1.179-0.845-1.724-1.323c-0.573-0.456-1.121-0.944-1.64-1.46
		c-0.987-0.97-1.914-2.007-2.798-3.066c-1.782-2.142-3.297-4.493-4.959-6.728c-0.862-1.161-1.76-2.298-2.721-3.378
		c-0.486-0.52-0.945-1.065-1.374-1.633c-0.309-0.514-0.55-1.067-0.715-1.644c-0.385-0.853-0.54-1.793-0.45-2.725
		c0.213-1.176,0.551-2.326,1.009-3.431c1.124-3.153,2.44-6.235,3.941-9.227c1.558-2.99,3.346-5.875,5.156-8.717
		c0.922-1.45,1.897-2.864,2.768-4.342c0.838-1.419,1.591-2.881,2.293-4.371c1.38-2.94,2.596-5.924,3.742-8.96
		c0.886-3.101,2.254-6.044,4.054-8.72c0.796-1.043,1.782-1.926,2.906-2.602c1.301-0.695,2.746-1.078,4.22-1.116
		C180.807,50.779,180.901,50.222,180.534,50.161z"/>
	<path fill="#FF0000" d="M165.463,99.199l1.024-1.281c1.452-1.722,3.162-3.257,4.484-5.083c0.631-0.798,1.139-1.685,1.507-2.633
		c0.061-0.183-0.19-0.248-0.284-0.114c-0.519,0.648-1.125,1.22-1.802,1.7c-0.871,0.672-1.744,1.351-2.591,2.057
		c-1.748,1.287-3.344,2.768-4.758,4.416c-0.662,0.751-1.072,1.689-1.175,2.685c-0.001,0.225,0.038,0.448,0.117,0.658l0.121,0.274
		l-0.059-0.066l0.172,0.419c0.232,0.458,0.534,0.876,0.895,1.241c0.776,0.858,1.675,1.605,2.527,2.385
		c0.834,0.794,1.519,1.732,2.02,2.769c0.863,2.302,2.123,4.434,3.724,6.3c0.121,0.109,0.307,0.099,0.416-0.022
		c0.084-0.094,0.1-0.23,0.038-0.34c-0.709-1.43-1.38-2.878-2.032-4.331c-0.577-1.385-1.259-2.725-2.039-4.007
		c-0.626-0.869-1.307-1.699-2.037-2.483c-0.346-0.401-0.67-0.821-0.968-1.259c-0.23-0.306-0.41-0.647-0.532-1.01l0.04-0.098
		l0.133-0.432l0.031-0.083l0.07-0.166l0.326-0.583l0.343-0.532l0.145-0.199L165.463,99.199z"/>
	<path fill="#FF0000" d="M242.173,64.27c-0.368-2.802-1.855-5.336-4.123-7.023c-2.471-1.241-5.25-1.734-7.996-1.419
		c-0.414-0.044-0.82-0.149-1.204-0.31l-0.063,0.244c0.655,0.214,1.286,0.396,1.918,0.665c0.658,0.252,1.329,0.468,2.011,0.645
		c1.286,0.355,2.509,0.907,3.625,1.638c1.988,1.572,3.286,3.856,3.62,6.369c0.471,2.883,0.261,5.836-0.613,8.624
		c-0.443,1.596-0.993,3.156-1.5,4.734c-0.532,1.657-0.94,3.336-1.321,5.035c-0.39,1.72-0.786,3.437-1.265,5.135
		c-0.476,1.714-1.096,3.382-1.572,5.101c-0.947,3.431-1.636,6.928-2.062,10.462c-0.399,3.532-0.577,7.085-0.532,10.639
		c0.008,3.597,0.096,7.178,0.272,10.77c0.169,3.516,0.314,7.03,0.266,10.551c-0.021,1.74-0.037,3.489-0.204,5.223
		c-0.143,1.507-0.403,3.005-0.652,4.494c-1.824,5.698-1.077,11.907,2.047,17.01l0.133,0.154c0.266,0.319,0.861-0.032,0.697-0.421
		c-0.657-1.453-1.199-2.954-1.622-4.492c-0.319-1.372-0.462-2.78-0.424-4.189c0.205-2.843,0.632-5.667,1.276-8.444
		c0.59-3.298,0.791-6.654,0.598-9.998c-0.204-3.524-0.679-7.027-0.924-10.548c-0.436-7.125-0.075-14.276,1.076-21.32
		c0.54-3.521,1.308-7.004,2.299-10.426c0.499-1.7,1.133-3.356,1.562-5.078s0.771-3.451,1.139-5.181
		c0.355-1.673,0.799-3.326,1.33-4.951c0.516-1.577,1.036-3.147,1.445-4.754c0.367-1.591,0.639-3.203,0.813-4.827
		C242.396,67.014,242.379,65.631,242.173,64.27z"/>
	<path fill="#FF0000" d="M222.306,147.245c-0.327-1.681-0.754-3.338-1.2-4.993c-0.895-3.331-1.898-6.642-2.489-10.048
		c-0.481-3.469-0.502-6.987-0.063-10.462c0.63-7.115,1.341-14.211,2.182-21.307c0.97-7.02,1.575-14.086,1.812-21.169
		c-0.004-0.104-0.091-0.185-0.195-0.182c-0.082,0.003-0.153,0.058-0.175,0.137c-1.448,7.171-2.78,14.353-3.932,21.581
		c-1.173,6.635-1.887,13.343-2.135,20.076l-0.77,2.494c-0.722,2.406-1.276,4.859-1.658,7.342c-0.291,2.446-0.193,4.922,0.289,7.337
		c0.429,2.407,1.211,4.728,1.818,7.093c0.048,0.152,0.21,0.237,0.362,0.189c0.119-0.038,0.201-0.148,0.202-0.273
		c-0.12-2.36-0.362-4.713-0.633-7.059c-0.339-2.318-0.378-4.67-0.116-6.998c0.164-1.12,0.385-2.229,0.637-3.336
		c0.116,1.832,0.346,3.655,0.689,5.458c0.662,3.389,1.657,6.703,2.546,10.036c0.421,1.586,0.809,3.18,1.127,4.792
		c0.305,1.556,4.837,14.969,4.86,15.908c-0.089,1.651-0.574,3.256-1.414,4.679c-0.887,1.49-1.632,3.061-2.225,4.691
		c-0.279,0.92,1.153,1.282,1.44,0.374c1.053-3.354,4.143-5.935,4.167-9.62C227.44,162.165,222.616,148.832,222.306,147.245z"/>
	<path fill="#FF0000" d="M218.538,156.75c-2.97-1.755-6.094-3.235-9.334-4.42c-2.102-0.736-16.834-5.727-19.247-6.921
		c-4.119-1.939-7.818-4.669-10.885-8.034c-2.701-3.184-4.56-6.995-5.408-11.083l1.302-1.186c4.395-3.722,7.973-8.314,10.506-13.486
		c0.415-0.966,0.75-1.959,1.123-2.936c0.095-0.257-0.326-0.423-0.441-0.18c-0.646,1.259-1.402,2.458-2.258,3.584
		c-0.813,1.141-1.708,2.239-2.621,3.299c-1.903,2.145-3.936,4.171-6.09,6.065c-4.211,3.808-8.73,7.265-12.88,11.138
		c-4.52,4.073-7.467,9.602-8.328,15.624c-0.343,2.922,0.065,5.884,1.183,8.605c0.935,2.301,2.597,4.233,4.733,5.5
		c1.361,0.812,2.842,1.404,4.389,1.752c0.245,0.054,0.487-0.101,0.541-0.346c0.042-0.189-0.042-0.384-0.207-0.485
		c-2.196-1.02-4.233-2.353-6.046-3.959c-1.642-2.088-2.536-4.667-2.538-7.323c0.039-5.763,2.285-11.291,6.277-15.448
		c1.533-1.669,3.179-3.231,4.926-4.673l0.937,0.18l0.454,0.063l0.013,0.003l0.039,0.008l0.587,0.101l0.488,0.147l0.022,0.008
		l0.029,0.012l0.231,0.111l0.451,0.259l0.216,0.143l0.041,0.028l0.089,0.073l0.803,0.766l0.284,0.332l0.386,0.523l0.652,1.056
		l0.294,0.567l0.141,0.289l0.129,0.282c0.709,1.682,1.201,3.447,1.463,5.253c0.274,1.677,0.298,3.385,0.071,5.069
		c-0.104,0.529-0.237,1.051-0.399,1.565l-0.242,0.676l-0.063,0.39l-0.071,0.181l0.144,0.14c0.204-0.157,0.418-0.099,0.645-0.31
		c0.254-0.242,0.482-0.511,0.68-0.801c0.398-0.654,0.681-1.371,0.837-2.12c0.421-1.761,0.521-3.582,0.298-5.379
		c-0.194-3.769-1.775-7.333-4.439-10.006c-0.863-0.752-1.913-1.258-3.04-1.463c1.229-1.05,2.46-2.093,3.673-3.163
		c1.593,8.593,7.317,15.851,15.302,19.403c0.689,0.394,1.391,0.77,2.096,1.138l-0.629-0.063c-1.872-0.187-3.757-0.209-5.633-0.065
		c-0.938,0.08-1.87,0.222-2.789,0.424c-1.064,0.238-1.988,0.839-3.019,1.153l0.035,0.12c0.982-0.111,1.972-0.134,2.958-0.069
		c0.943-0.009,1.889-0.111,2.837-0.138c1.805-0.05,3.611,0.035,5.403,0.256c1.811,0.225,3.61,0.538,5.398,0.897l1.659,0.362
		c1.472,0.609,2.958,1.186,4.458,1.729c2.021,0.739,4.086,1.374,6.141,2.009c3.147,0.971,6.076,2.499,9.244,3.404
		c0.579,0.147,1.17,0.242,1.767,0.283C218.81,157.709,218.927,156.976,218.538,156.75z"/>
	<path fill="#FF0000" d="M218.745,167.929c-0.365,0.55-0.802,1.044-1.153,1.599l-1.161,1.795c-0.754,1.142-1.536,2.264-2.346,3.366
		c-1.509,2.143-3.346,4.036-5.444,5.609c-4.322,2.76-9.453,3.971-14.553,3.435c-5.234-0.166-10.369-1.466-15.052-3.808
		c-2.224-1.1-4.204-2.637-5.822-4.518c-1.606-1.92-2.656-4.243-3.036-6.717c-0.342-2.727-0.18-5.494,0.477-8.162
		c0.612-2.792,1.586-5.492,2.895-8.033c0.112-0.222,0.022-0.493-0.2-0.605c-0.207-0.104-0.459-0.034-0.582,0.161
		c-1.529,2.259-2.829,4.665-3.881,7.182c-1.002,2.528-1.494,5.23-1.449,7.949c0.049,2.766,0.8,5.474,2.182,7.87
		c1.445,2.366,3.407,4.374,5.74,5.872c4.593,2.907,9.818,4.667,15.233,5.129c5.259,0.794,10.634,0.175,15.575-1.795
		c3.152-1.56,5.881-3.856,7.958-6.694c1.077-1.389,2.058-2.851,2.935-4.375c0.443-0.756,0.862-1.523,1.273-2.298
		c0.439-0.825,0.771-1.685,1.173-2.527c0.106-0.218,0.015-0.481-0.203-0.587C219.105,167.681,218.866,167.746,218.745,167.929z"/>
	<path fill="#FF0000" d="M234.536,166.483c-0.063-0.2-0.276-0.311-0.476-0.249c-0.122,0.038-0.216,0.135-0.251,0.258
		c-0.213,0.957-0.34,1.917-0.516,2.87c-0.197,0.469-0.306,0.971-0.321,1.479l-0.202,0.665c-0.685,1.634-1.875,3.006-3.395,3.916
		c-3.548,1.918-6.819,4.309-9.723,7.107c-0.117,0.147,0.039,0.375,0.213,0.268c3.602-2.234,7.703-3.569,11.208-5.955
		c0.619-0.416,1.198-0.889,1.729-1.412l-0.056,1.808c-0.1,0.903-0.069,1.815,0.091,2.709l0.401,0.102
		c0.501-0.73,0.841-1.558,0.997-2.43c0.247-0.932,0.425-1.882,0.532-2.841c0.112-0.96,0.165-1.922,0.204-2.881
		c0.012-0.371,0.027-0.762,0.007-1.149C235.032,169.312,234.884,167.876,234.536,166.483z"/>
	<path fill="#FF0000" d="M225.657,16.542c-1.222-4.825-4.306-8.97-8.578-11.526c-4.41-2.238-9.446-2.921-14.292-1.938
		c-5.076,0.754-9.899,2.708-14.068,5.701c-4.258,2.819-7.297,7.141-8.508,12.102c-0.126,0.706-0.145,1.412-0.224,2.123
		c-0.026,0.213,0.327,0.249,0.369,0.044c0.318-1.191,0.781-2.338,1.379-3.417c0.54-1.068,1.181-2.083,1.913-3.03
		c1.535-1.915,3.336-3.602,5.346-5.009c4.01-2.912,8.636-4.86,13.521-5.694l0.317-0.05l0.269-0.044l0.865-0.109
		c0.638-0.086,1.272-0.145,1.918-0.189c1.196-0.079,2.396-0.067,3.591,0.035l1.443,0.208c0.538,0.098,1.067,0.224,1.593,0.373
		c0.992,0.264,1.949,0.642,2.854,1.126c0.467,0.236,0.918,0.502,1.361,0.782c0.384,0.241,0.754,0.504,1.108,0.786
		c0.887,0.703,1.714,1.479,2.472,2.319c1.568,1.841,2.963,3.823,4.167,5.92c0.197,0.303,0.601,0.389,0.904,0.193
		C225.613,17.098,225.725,16.813,225.657,16.542z"/>
	<path fill="#FF0000" d="M192.817,88.5c-0.889-1.057-1.942-1.963-2.852-3c-0.787-0.715-1.048-1.845-0.653-2.832
		c0.379-1.392,1.076-2.674,1.493-4.054c0.516-1.477,0.814-3.02,0.887-4.582c-0.014-1.606-0.624-3.149-1.712-4.331
		c-0.789-0.768-1.618-1.495-2.483-2.177c-0.732-0.568-1.09-1.493-0.931-2.405v-0.028l0.017-0.084l0.056-0.297l0.16-0.572
		l0.071-0.177l0.085-0.189l0.331-0.589c0.959-1.284,2.146-2.381,3.502-3.236c1.502-0.967,2.869-2.13,4.064-3.458
		c1.217-1.455,1.791-3.341,1.592-5.227c-0.325-2.213-1.056-4.346-2.157-6.293c-0.448-0.869-0.931-1.718-1.408-2.571l-0.617-1.146
		l-0.285-0.554l-0.133-0.271l-0.118-0.252l-0.35-0.965l-0.133-0.516l-0.02-0.111l-0.03-0.25l-0.009-0.501l0.005-0.096l0.024-0.171
		l0.128-0.494l0.051-0.139l0.113-0.236l0.3-0.491l0.031-0.044l0.032-0.044l0.21-0.248c0.314-0.353,0.66-0.678,1.032-0.97
		c1.132-0.878,2.405-1.507,3.447-2.494c0.677-0.635-0.084-1.497-0.832-1.381c-1.414,0.29-2.734,0.923-3.847,1.842
		c-0.883,0.64-1.645,1.432-2.252,2.338c-0.875,1.461-1.048,3.238-0.471,4.84c0.648,1.701,1.486,3.324,2.497,4.838
		c1.097,1.729,1.949,3.603,2.53,5.567c0.126,0.428,0.209,0.868,0.249,1.313c0.036,0.409,0.014,0.822-0.067,1.224l-0.151,0.586
		l-0.089,0.239l-0.065,0.15l-0.273,0.516l-0.156,0.248l-0.153,0.226c-1.072,1.269-2.336,2.362-3.747,3.239
		c-0.798,0.571-1.576,1.163-2.228,1.697c-0.656,0.519-1.247,1.116-1.759,1.778c-1.435,1.662-1.827,3.984-1.02,6.025
		c1.031,2.128,3.679,2.873,4.409,5.11c0.298,1.395,0.178,2.847-0.345,4.174c-0.405,1.408-0.975,2.731-1.493,4.1
		c-0.625,1.29-0.74,2.768-0.321,4.139c0.636,1.268,1.524,2.392,2.609,3.305c0.988,0.866,1.88,1.835,2.66,2.893
		c0.916,1.293,1.675,2.69,2.261,4.162c1.295,3.117,0.898,6.681-1.051,9.437l0.214,0.207c1.033-1.199,1.871-2.553,2.483-4.013
		c0.473-1.395,0.628-2.878,0.453-4.341C196.168,93.771,194.854,90.868,192.817,88.5z"/>
	<path fill="#FF0000" d="M243.15,89.827c-0.618-1.448-1.398-2.823-2.092-4.233c-0.665-1.354-1.256-2.752-1.951-4.084
		c-0.251-0.48-0.956-0.212-0.967,0.277c0.281,2.749,1.11,5.413,2.438,7.836c1.199,2.386,1.876,5.001,1.984,7.669
		c-0.01,1.972-0.673,3.885-1.885,5.44c-1.383,1.662-3.373,2.703-5.527,2.891c-0.162,0.012-0.219,0.28-0.035,0.305
		c2.294,0.438,4.665-0.124,6.519-1.543c1.784-1.556,2.9-3.74,3.115-6.097C244.977,95.376,244.426,92.455,243.15,89.827z"/>
	<path fill="#FF0000" d="M194.599,125.943c-1.079,1.074-1.866,2.406-2.286,3.87c-0.565,1.375-1.293,2.678-2.168,3.88
		c-0.184,0.204-0.167,0.518,0.036,0.701c0.192,0.173,0.485,0.17,0.673-0.007c1.122-0.958,2.043-2.129,2.709-3.445l1.054-1.963
		c0.455-0.698,0.796-1.465,1.01-2.271C195.726,126.175,195.131,125.552,194.599,125.943z"/>
	<path fill="#FF0000" d="M210.042,55.189c-1.559-2.504-2.939-5.114-4.131-7.812c-1.042-1.956-1.127-4.283-0.229-6.31l0.12-0.174
		L206,40.649l0.683-0.781c0.536-0.589,1.108-1.147,1.633-1.742c1.186-1.359,2.261-2.788,3.31-4.253
		c0.959-1.146,1.535-2.563,1.648-4.054c-0.134-1.547-1.274-2.818-2.797-3.119c-0.704-0.191-1.431-0.288-2.16-0.289
		c-0.376,0.015-0.668,0.333-0.653,0.709c0.012,0.293,0.211,0.546,0.493,0.627c0.888,0.175,1.744,0.488,2.535,0.927l0.173,0.116
		l0.096,0.082l0.233,0.231l0.139,0.222l0.099,0.317v0.012l0.008,0.195l-0.008,0.2v0.008v0.017l-0.098,0.42l-0.066,0.214
		l-0.033,0.098l-0.019,0.044c-0.309,0.682-0.695,1.326-1.149,1.921c-1.082,1.299-2.261,2.513-3.527,3.632
		c-1.085,1.024-2.072,2.147-2.951,3.352c-1.164,2.148-1.343,4.694-0.492,6.983c1.011,2.869,2.356,5.608,4.007,8.163
		c0.698,1.232,1.402,2.464,2.084,3.707c0.614,1.067,0.876,2.3,0.748,3.524c-0.217,1.334-0.746,2.597-1.544,3.687
		c-0.78,1.099-1.664,2.12-2.642,3.049c-1.063,1.005-2.067,2.069-3.009,3.187c-0.913,1.111-1.667,2.344-2.241,3.663
		c-1.021,2.512-1.124,5.304-0.292,7.885c0.5,1.425,1.092,2.816,1.773,4.164c0.59,1.365,0.961,2.815,1.098,4.296
		c0.295,3.128-0.076,6.283-1.087,9.258l-0.192,0.541c-0.085,0.222,0.247,0.321,0.367,0.147c1.831-2.616,2.909-5.685,3.119-8.871
		c0.062-1.573-0.117-3.146-0.532-4.665c-0.474-1.457-1.024-2.889-1.647-4.289c-0.973-2.233-1.089-4.746-0.326-7.059
		c1.138-2.466,2.798-4.655,4.865-6.416c2.19-1.976,3.786-4.523,4.607-7.356c0.356-1.492,0.27-3.054-0.245-4.498
		C211.454,57.58,210.796,56.355,210.042,55.189z"/>
</g>
<rect x="47.574" y="202.843" fill="none" width="316.174" height="53.904"/>
<text transform="matrix(1 0 0 1 47.5737 235.041)"><tspan x="0" y="0" fill="#FF0000" font-family="'CinzelDecorative-Bold'" font-size="46">V</tspan><tspan x="33.074" y="0" fill="#FF0000" font-family="'Cinzel-Bold'" font-size="46">icky </tspan><tspan x="152.304" y="0" fill="#FF0000" font-family="'CinzelDecorative-Bold'" font-size="46">L</tspan><tspan x="171.946" y="0" fill="#FF0000" font-family="'Cinzel-Bold'" font-size="46">atina</tspan></text>
<g>
	<path fill="#FF0000" d="M21.993,211.792c4.993-7.801,14.978-5.169,14.978,3.008c0,8.083-9.523,14.098-14.978,19.455
		c-5.455-5.357-14.978-11.372-14.978-19.455C6.922,206.717,17.093,203.991,21.993,211.792z"/>
</g>
<g>
	<path fill="#FF0000" d="M378.726,211.792c4.993-7.801,14.978-5.169,14.978,3.008c0,8.083-9.523,14.098-14.978,19.455
		c-5.455-5.357-14.978-11.372-14.978-19.455C363.656,206.717,373.826,203.991,378.726,211.792z"/>
</g>
<g>
	<g>
		<path fill="#FF0000" d="M148.969,275.478l0.411,5.279c-1.367,2.219-4.232,3.951-8.787,3.951
			c-7.791-0.035-12.622-4.027-12.622-10.967c0-6.858,4.719-10.936,12.622-10.936c3.2,0,6.042,0.694,7.883,1.591v5.561h-0.271
			c-1.187-4.3-3.786-5.775-7.253-5.775c-5.089,0-7.645,3.783-7.645,9.492c0,5.806,2.695,9.528,7.291,9.639
			c4.993,0.016,7.234-2.133,8.1-7.834L148.969,275.478z"/>
		<path fill="#FF0000" d="M171.513,281.951c0.677,1.406,1.791,1.954,2.75,1.954h0.262v0.35h-10.288v-0.347h0.275
			c0.808,0,1.715-0.684,1.192-1.946l-1.358-3.199h-7.414l-1.398,3.246c-0.48,1.232,0.418,1.899,1.216,1.899h0.275v0.347h-6.992
			v-0.35h0.28c0.888,0,2.01-0.515,2.676-1.826l7.22-15.549c0.241-0.54,1.526-3.256,1.634-4.244h0.297L171.513,281.951z
			 M163.761,277.385l-3.096-7.293l-3.14,7.293H163.761z"/>
		<path fill="#FF0000" d="M201.315,282.173c0.255,1.118,1.185,1.731,2.239,1.731h0.493v0.35h-9.739v-0.342h0.489
			c1.018-0.001,1.266-0.882,1.211-1.397l-1.37-10.021l-5.581,8.869c0,0-1.24,1.983-1.265,3.558h-0.312l-8.076-12.262l-1.203,9.856
			c-0.051,0.5,0.258,1.396,1.208,1.397h0.488v0.342h-6.659v-0.35h0.477c1.137,0,2.126-0.672,2.303-1.89l2.716-19.209h0.289
			l9.887,14.794l9.281-14.79h0.308L201.315,282.173z"/>
		<path fill="#FF0000" d="M235.709,280.6c-1.474,1.913-5.554,4.109-10.491,4.109c-6.996-0.035-11.545-4.119-11.545-10.99
			c0-6.813,4.444-10.913,11.753-10.913c3.232,0,6.715,0.628,8.68,1.592v5.561h-0.27c-1.187-4.437-3.998-5.776-7.349-5.776
			c-4.904,0-7.479,3.571-7.479,9.744c0,5.819,2.354,9.4,6.673,9.4c2.208,0,4.343-1.051,4.99-3.196l0.044-4.222
			c0.004-0.882-0.582-1.377-1.542-1.376h-0.498v-0.307h9.01v0.307h-0.444c-0.983,0-1.531,0.493-1.531,1.38V280.6z"/>
		<path fill="#FF0000" d="M238.599,284.254v-0.351h0.414c1.094,0,2.01-0.803,2.019-1.858v-16.586
			c-0.009-1.057-0.925-1.859-2.019-1.859h-0.415v-0.35h9.926v0.35h-0.404c-1.107,0-1.996,0.79-2.04,1.834v16.621
			c0.036,1.051,0.928,1.85,2.04,1.85h0.415v0.35H238.599z"/>
		<path fill="#FF0000" d="M261.353,263.254c3.637,0,7.135,1.479,7.135,5.657c0,2.525-1.506,5.361-4.91,5.7
			c1.267,0.416,2.395,1.607,3.06,2.658c0.092,0.146,1.891,2.999,3.021,4.408c1.294,1.646,2.149,2.251,3.713,2.274v0.301h-2.921
			c-3.281,0-5.668-0.71-7.046-3.109c-0.729-1.271-2.082-4.241-2.499-5.139c-0.583-1.252-1.253-1.888-2.031-2.021v-0.285h0.916
			c1.612-0.017,3.253-0.84,3.788-3.468c0.07-0.365,0.136-0.849,0.111-1.452c-0.12-2.869-1.568-4.153-3.539-4.201
			c-0.795-0.034-1.898-0.001-2.275-0.01v17.5c0.02,1.045,0.872,1.887,1.928,1.886h0.373l0.005,0.3h-9.121l0.005-0.3h0.38
			c1.045,0,1.894-0.833,1.92-1.872v-16.644c-0.02-1.045-0.872-1.886-1.918-1.885h-0.383l-0.005-0.298L261.353,263.254z"/>
		<path fill="#FF0000" d="M289.787,284.254h-16.462v-0.35h0.419c1.03,0,1.872-0.788,1.895-1.83v-16.615
			c-0.007-1.057-0.88-1.859-1.919-1.859h-0.396v-0.35h9.704v0.35h-0.396c-1.063,0-1.912,0.803-1.942,1.859v17.388h4.215
			c2.958-0.029,4.976-1.933,5.892-5.029h0.362L289.787,284.254z"/>
	</g>
</g>
</svg>
