<svg xmlns="http://www.w3.org/2000/svg" data-name="Layer 1" viewBox="0 0 5 6.25" x="0px" y="0px"><title>icon</title><g><path d="M2.677,1.9099a.00558.00558,0,0,0-.01089.00162.12839.12839,0,0,1-.01077.04455l-.01915.04609c-.01324.03264-.02905.06426-.04258.09685a1.91356,1.91356,0,0,0-.07065.20193c-.01933.0678-.03087.13755-.04476.20657-.01319.0657-.0308.13032-.04536.1958a.46944.46944,0,0,1-.06178.16984.59321.59321,0,0,1-.08275.08941c.001-.01911.00018-.03836-.00074-.05733-.00211-.0442-.008-.08826-.01234-.1322a1.192,1.192,0,0,0-.01694-.12863l-.00591.0001A.61264.61264,0,0,0,2.243,2.765c0,.04125.00047.08254.00067.12384a.45286.45286,0,0,1-.00258.09221.15624.15624,0,0,1-.01666.04329c-.091.08952-.18362.17754-.27275.26906q-.07415.07614-.14583.15466c-.042.046-.08145.09414-.12123.14211a1.17842,1.17842,0,0,1-.13225.10757.6839.6839,0,0,0-.09148.07933.60932.60932,0,0,1-.0836.08c-.00455.00312-.00334.01251.00332.01154A.22164.22164,0,0,0,1.4793,3.813c.02645-.02135.05022-.04528.07683-.06607l-.017.01883a.85633.85633,0,0,0-.06713.07407.74241.74241,0,0,0-.05154.07818c-.02.03488-.03788.071-.05862.10562-.01015.01706-.02092.03376-.03136.05059l-.01678.02544a.31872.31872,0,0,0-.01711.03031.01544.01544,0,0,0,.02442.0183.55292.55292,0,0,0,.09738-.16008.71431.71431,0,0,1,.10091-.15652c.04532-.051.09843-.09453.14347-.14587.0455-.05181.08805-.1063.1329-.15885.09164-.10732.19226-.20791.29239-.3073q.0751-.07427.15161-.147c.023-.02219.04616-.0446.06962-.06645.02155-.02023.04388-.03972.06471-.06078a.38285.38285,0,0,0,.05623-.07011.37808.37808,0,0,0,.036-.08641c.00945-.03129.01615-.06329.02325-.09509.007-.032.0155-.06366.02343-.09551.01662-.06794.02663-.13738.04039-.206a1.99441,1.99441,0,0,1,.05421-.20559c.0151-.0485.03217-.09639.04915-.14433.008-.0227.01534-.04548.02166-.0687A.094.094,0,0,0,2.677,1.9099Z" fill="#000000"/><path d="M2.33112,2.42021a.07729.07729,0,0,0-.03842-.02381.40123.40123,0,0,1-.07083-.04046A.19911.19911,0,0,1,2.141,2.223a1.42035,1.42035,0,0,1-.00155-.179l-.006-.0007A.63646.63646,0,0,0,2.10033,2.21a.22015.22015,0,0,0,.0614.156.29385.29385,0,0,0,.06631.052.38226.38226,0,0,0,.03483.0181.15726.15726,0,0,0,.0418.0157C2.32219,2.45429,2.34293,2.43913,2.33112,2.42021Z" fill="#000000"/><path d="M2.20013,3.65912a.20381.20381,0,0,0-.01093-.07678c-.00172-.00377-.00777-.00476-.00878.00014-.00616.02729-.00685.05566-.01317.08318a.69383.69383,0,0,1-.02558.086c-.01.02716-.01958.05416-.03214.08031a.60128.60128,0,0,1-.04377.07585,1.37165,1.37165,0,0,1-.11863.14331q-.06394.07249-.12157.15008a1.19678,1.19678,0,0,0-.16283.28193c-.00614.01608.01837.024.02677.01079.03389-.0537.06606-.1085.10134-.16144.03454-.05186.07043-.10263.10911-.15142.03958-.04994.08223-.097.12495-.14416a.8309.8309,0,0,0,.11288-.14917.48363.48363,0,0,0,.0558-.14876A.41983.41983,0,0,0,2.20013,3.65912Z" fill="#000000"/><path d="M3.13189,3.27738a.87519.87519,0,0,0-.12385-.1077c-.02018-.01477-.04133-.028-.0606-.04391a.26843.26843,0,0,1-.02359-.022l-.005-.00558-.003-.00362L2.9071,3.08231l-.00677-.01186-.00246-.00493-.00132-.00344-.00412-.01279-.00164-.0066-.00123-.00646a.2149.2149,0,0,1,.00159-.06036,1.123,1.123,0,0,1,.04892-.18426c.03434-.10143.07616-.20033.11514-.3.00269-.0068-.00842-.01112-.01165-.00475a3.02846,3.02846,0,0,0-.16731.36122.54074.54074,0,0,0-.03685.16857.17394.17394,0,0,0,.04518.11686.72781.72781,0,0,0,.11805.09119.7626.7626,0,0,1,.11863.11006.44151.44151,0,0,1,.0799.13179.36943.36943,0,0,1,.01955.15974.35412.35412,0,0,1-.03118.11975c-.0181.03951-.04554.07259-.06673.1101-.00578.01019.00715.025.01752.01689a.331.331,0,0,0,.09319-.135.41014.41014,0,0,0-.10163-.46065Z" fill="#000000"/><path d="M3.05419,3.61411A.43641.43641,0,0,0,2.94344,3.474c-.00428-.00376-.01176.00141-.00813.00653a.56553.56553,0,0,1,.07607.14228.35855.35855,0,0,1,.019.15058.50382.50382,0,0,1-.045.159.67372.67372,0,0,1-.09162.1456.70569.70569,0,0,1-.11592.11387.407.407,0,0,1-.07244.04281c-.02634.01259-.05421.02162-.08069.034a.01579.01579,0,0,0,.00829.02915l.01017-.00157-.00341.01259a.41989.41989,0,0,0-.00788.09427.50784.50784,0,0,0,.01192.09877.21259.21259,0,0,0,.0177.06072l.00659-.00186c.00121-.04961.00383-.09913.00694-.14867l.00235-.04482.0022-.022V4.34456L2.68043,4.339l.00148-.00962L2.68586,4.312l.00226-.00758.00042-.0014L2.689,4.302,2.692,4.2963l.00253-.00652.00011-.00023L2.697,4.28267a.55634.55634,0,0,0,.2374-.17508.611.611,0,0,0,.14748-.32167A.32666.32666,0,0,0,3.05419,3.61411Z" fill="#000000"/><path d="M2.87534,3.32239a.13881.13881,0,0,0-.02894-.06048.67231.67231,0,0,1-.0366-.05925c-.01048-.01908-.02074-.038-.03022-.05771a.34133.34133,0,0,1-.02724-.06417.00692.00692,0,0,0-.01351.00206c.00161.02347.00146.047.00517.07025a.26814.26814,0,0,0,.023.07151.40845.40845,0,0,0,.03488.06013.1155.1155,0,0,0,.05694.05064A.01329.01329,0,0,0,2.87534,3.32239Z" fill="#000000"/><path d="M3.17,3.9718a.01356.01356,0,0,0-.025.00717c-.00009.03858-.00052.077-.00365.1156-.00323.041-.01.08178-.01268.123-.00363.05367-.00786.10733-.01317.1609-.0054.05375-.01568.10741-.0179.16135-.00031.00958.0125.00958.0155.00186a.935.935,0,0,0,.03947-.15875,1.30729,1.30729,0,0,0,.02218-.1661c.00262-.0411.00954-.08191.01308-.123A.18553.18553,0,0,0,3.17,3.9718Z" fill="#000000"/><path d="M2.62847,4.26592a.10919.10919,0,0,0-.02961.01115.2142.2142,0,0,0-.0267.021c-.01646.01361-.03181.02868-.04717.04333L2.4375,4.4251a.87467.87467,0,0,1-.17493.1483c-.00457.00246-.00128.00925.00361.00809A.5047.5047,0,0,0,2.4606,4.4624c.03069-.02558.06032-.05236.08938-.07994.01635-.01568.03313-.031.05006-.04618L2.62309,4.314a.09684.09684,0,0,0,.01909-.03085A.012.012,0,0,0,2.62847,4.26592Z" fill="#000000"/><path d="M1.73955,3.78416a1.10719,1.10719,0,0,0-.10163.13975.30846.30846,0,0,0-.04.1714.00834.00834,0,0,0,.01633.002.78116.78116,0,0,1,.065-.15391,1.3295,1.3295,0,0,0,.0702-.1536C1.75151,3.7843,1.74311,3.77952,1.73955,3.78416Z" fill="#000000"/><path d="M1.58253,3.95065a.15429.15429,0,0,1-.03783.02889.2.2,0,0,0-.03611.03305.86967.86967,0,0,0-.06671.09456c-.01349.02052-.02415.04281-.03911.06232-.01418.01846-.03694.04962-.06391.04311l-.00137.00507a.08251.08251,0,0,0,.074-.01563.244.244,0,0,0,.0575-.06789c.01991-.03176.04115-.06319.06406-.09291.01131-.01465.02276-.028.03539-.04149a.12182.12182,0,0,0,.027-.04394C1.59818,3.94766,1.5868,3.94487,1.58253,3.95065Z" fill="#000000"/><path d="M3.0493,1.77774a.265.265,0,0,0-.09677-.15745.11757.11757,0,0,0-.07959-.02073.20306.20306,0,0,0-.047.01092.09316.09316,0,0,0-.02406.01154.13753.13753,0,0,1-.02565.01572l.002.00441a.20329.20329,0,0,1,.05141-.0068.15736.15736,0,0,1,.04131.00024l.01752.00387.00826.00226.00475.00164.01507.00688.00717.00411.0062.00417a.222.222,0,0,1,.047.0532c.00869.01223.0166.025.02489.03757a.44223.44223,0,0,0,.02894.03972C3.03835,1.79849,3.05165,1.78759,3.0493,1.77774Z" fill="#000000"/><path d="M3.00363,1.94761c-.01129.0311-.02227.062-.03056.094-.00813.03211-.0149.06473-.02189.09717-.01434.06525-.02717.13077-.04113.19606a1.46353,1.46353,0,0,1-.05159.19051,1.18705,1.18705,0,0,1-.07876.1609,1.57408,1.57408,0,0,0-.07773.16067.61814.61814,0,0,0-.02442.083c-.00623.02531-.015.0506-.02276.07552A.19645.19645,0,0,1,2.62217,3.07a.38244.38244,0,0,1-.06548.06236c-.05058.04007-.10268.0778-.15123.12064-.04937.0436-.0956.09077-.14531.134a.89355.89355,0,0,1-.12995.09039,1.4384,1.4384,0,0,0-.26421.17612.39881.39881,0,0,0-.063.07941c-.003.00481.00423.01033.00789.006a.531.531,0,0,1,.11668-.097,1.5386,1.5386,0,0,1,.13837-.07943,1.53168,1.53168,0,0,0,.13709-.079.97143.97143,0,0,0,.13783-.11176c.04794-.045.09516-.09059.14607-.13238.04886-.04019.10237-.07384.14872-.11724a.27145.27145,0,0,0,.08154-.142c.00533-.02725.00665-.0552.01-.08273a.638.638,0,0,1,.01823-.08654.42671.42671,0,0,1,.03707-.08163c.014-.02662.02865-.05282.04292-.07922a1.02934,1.02934,0,0,0,.07343-.16616,3.808,3.808,0,0,0,.09876-.38657l.01485-.07c.00513-.02442.00755-.04965.01171-.07431A.01058.01058,0,0,0,3.00363,1.94761Z" fill="#000000"/><path d="M2.6428,1.52691a.13039.13039,0,0,0-.02209-.07464c-.0084-.01051-.02793-.00832-.02726.00781a.22589.22589,0,0,0,.00437.03045l.004.02611a.19121.19121,0,0,1-.00134.04976.23024.23024,0,0,1-.0411.09366.73738.73738,0,0,1-.17282.16126,2.44137,2.44137,0,0,0-.2148.16186l.00491.00469a1.61937,1.61937,0,0,1,.18682-.11737.89449.89449,0,0,0,.19742-.15006.31081.31081,0,0,0,.07381-.1237A.2164.2164,0,0,0,2.6428,1.52691Z" fill="#000000"/><path d="M3.58859,2.54622a.54447.54447,0,0,1-.24022-.048.17075.17075,0,0,1-.03978-.0333.19781.19781,0,0,1-.03-.04631l-.00446-.01084L3.269,2.39267a.29356.29356,0,0,1-.00891-.03593.66381.66381,0,0,1-.00851-.09087,1.3,1.3,0,0,1,.008-.205c.00589-.05014.01443-.09993.0209-.15a.69119.69119,0,0,0-.00408-.27613.29485.29485,0,0,0-.065-.11875A.34449.34449,0,0,0,3.0827,1.4325a1.01891,1.01891,0,0,1-.15611-.07078.17411.17411,0,0,1-.057-.05425.28194.28194,0,0,1-.02809-.071.262.262,0,0,0-.08087-.14308.38433.38433,0,0,0-.14377-.05879c-.02459-.00648-.04957-.01306-.07352-.0219L2.5422,1.01231l-.002-.00089-.00614-.00291-.00892-.00526L2.51944.99795,2.51908.99757,2.51582.99233,2.51552.99194,2.51409.98747l-.00175-.008a.20222.20222,0,0,1-.00083-.0253A.42183.42183,0,0,0,2.511.89192.17054.17054,0,0,0,2.46438.79213.18224.18224,0,0,0,2.37583.74548a.28139.28139,0,0,0-.20622.03877.224.224,0,0,0-.06877.065L2.10571.8529A.27418.27418,0,0,1,2.29253.77705c.00829-.00022.01651,0,.0248.0005L2.34042.78l.02323.00484.01113.00335L2.38036.79,2.38527.792l.019.00958.00945.006.00271.002.00435.00362L2.4289.82068c.00128.00127.00827.00906.00509.00506l.00419.00531.00269.00353L2.448.8458l.00435.00846.00148.00362.00209.00563a.13777.13777,0,0,1,.0062.02469l.00072.00442.00063.00684L2.464.91373C2.464.925,2.46313.9363,2.46264.94753a.17375.17375,0,0,0,.00455.05539.08137.08137,0,0,0,.03369.04357.23453.23453,0,0,0,.064.0254c.0248.0079.05009.01413.07517.02106a.19722.19722,0,0,1,.11725.06939.25108.25108,0,0,1,.03118.073.61429.61429,0,0,0,.02713.07846.25409.25409,0,0,0,.12786.11517c.05114.02512.10586.0419.157.06689a.24441.24441,0,0,1,.05817.03938.2041.2041,0,0,1,.04007.04757.22.22,0,0,1,.02518.054l.00809.02976.00323.01527.00125.0077.00025.00139.00067.00484a.64.64,0,0,1,.001.13519c-.00826.10375-.0319.21247-.03754.32044a.95657.95657,0,0,0,.00977.204.27332.27332,0,0,0,.05071.12393.28674.28674,0,0,0,.21814.09625.50535.50535,0,0,0,.11265-.00576C3.60649,2.56739,3.60091,2.5473,3.58859,2.54622Z" fill="#000000"/><path d="M2.71645,1.34747a.54409.54409,0,0,1-.124.10586A.60117.60117,0,0,1,2.52995,1.49a.19858.19858,0,0,1-.03176.01261.04692.04692,0,0,1-.02444.0024l-.00708-.00617-.003-.004L2.4588,1.48752a.253.253,0,0,0-.03309-.03814c-.02141-.02175-.044-.0425-.06525-.06449a.79747.79747,0,0,1-.10611-.15624,2.048,2.048,0,0,1-.10477-.20154l-.00508.00223a.95812.95812,0,0,0,.05985.18683q.0202.04605.04368.09032a.57526.57526,0,0,0,.04971.082.70569.70569,0,0,0,.06279.06958l.03154.03139a.43249.43249,0,0,1,.0299.03492c.03575.04453.09966.0173.14011-.00494a.4607.4607,0,0,0,.09408-.06495.41976.41976,0,0,0,.07316-.09737C2.73368,1.34927,2.72246,1.34026,2.71645,1.34747Z" fill="#000000"/><path d="M3.564,1.6612a.3302.3302,0,0,0-.09254-.151c-.019-.01758-.03952-.03335-.0575-.05195a.15111.15111,0,0,1-.03557-.06391,1.23851,1.23851,0,0,1-.02395-.181.27877.27877,0,0,0-.06357-.14537.40507.40507,0,0,0-.254-.10169.39776.39776,0,0,1-.064-.0154L2.96808.94907l-.005-.00224L2.94982.9401,2.94359.93623,2.93974.93353l-.011-.01L2.92547.91987,2.92236.91546,2.91528.90293,2.91342.89825,2.91006.88742,2.90439.862a.46567.46567,0,0,1-.004-.08734.40441.40441,0,0,0-.02813-.1866A.27744.27744,0,0,0,2.76892.4754.435.435,0,0,0,2.48309.42295.47409.47409,0,0,0,2.28144.4941a.59484.59484,0,0,0-.154.1499c-.00623.00875.00728.01754.01452.0108A.883.883,0,0,1,2.26742.55014.49286.49286,0,0,1,2.4089.48744.51906.51906,0,0,1,2.555.47146l.03488.00236L2.59124.474l.00746.00083c-.005-.00055.00453.00067.00437.00059l.02.00327a.40149.40149,0,0,1,.0696.01943l.01185.00512.01535.00739a.31717.31717,0,0,1,.03136.01894A.19844.19844,0,0,1,2.774.54813L2.786.56l.00571.00624.00517.006a.22211.22211,0,0,1,.03743.0698.29994.29994,0,0,1,.01113.08612.615.615,0,0,0,.01483.18555.14847.14847,0,0,0,.10371.09165,1.08806,1.08806,0,0,0,.12912.02222.32953.32953,0,0,1,.12865.04433.19481.19481,0,0,1,.07491.10235.9586.9586,0,0,1,.02383.178.32624.32624,0,0,0,.02271.08817.20688.20688,0,0,0,.04895.06646c.01888.018.03934.03432.05741.05325a.29169.29169,0,0,1,.048.06872.25443.25443,0,0,1,.024.16281A.39552.39552,0,0,1,3.45,1.93037a.57432.57432,0,0,0-.04841.08066.29787.29787,0,0,0-.0252.10714.43748.43748,0,0,0,.00923.103.81475.81475,0,0,0,.0265.10272c.0037.012.0237.00985.02242-.00334a1.24146,1.24146,0,0,1-.01274-.1815.31522.31522,0,0,1,.01606-.08554.34271.34271,0,0,1,.03963-.0744.77212.77212,0,0,0,.08268-.13982A.28485.28485,0,0,0,3.564,1.6612Z" fill="#000000"/><path d="M3.70342,1.67166a.2448.2448,0,0,0-.07184-.14927c-.01736-.01744-.03521-.03436-.05224-.05221l-.0106-.01182-.00509-.00595L3.56247,1.451l-.00116-.00141a.23806.23806,0,0,1-.01841-.02789.13438.13438,0,0,1-.0116-.026.25272.25272,0,0,1-.01012-.03889.52754.52754,0,0,1-.00531-.08333.85427.85427,0,0,0-.01711-.18005A.30592.30592,0,0,0,3.41951.9529,1.00661,1.00661,0,0,0,3.10678.78376L3.10425.78831A1.08533,1.08533,0,0,1,3.358.94437a.30059.30059,0,0,1,.08192.11942.51711.51711,0,0,1,.02276.17113.58625.58625,0,0,0,.0172.17284.29311.29311,0,0,0,.0784.11594c.01844.01816.0384.03528.05546.055a.17022.17022,0,0,1,.03284.06343.28524.28524,0,0,1-.0022.15119.26529.26529,0,0,1-.03828.08127.8178.8178,0,0,0-.05407.08483.39409.39409,0,0,0-.03161.09751.97647.97647,0,0,0-.01185.10519c-.00089.011.017.01293.01918.00226.0062-.03091.01483-.06133.02377-.0916a.44982.44982,0,0,1,.03436-.0857,1.48955,1.48955,0,0,0,.09663-.15165A.353.353,0,0,0,3.70342,1.67166Z" fill="#000000"/><path d="M2.12813,1.51951a1.40324,1.40324,0,0,0-.06588-.16587,1.67469,1.67469,0,0,1-.06644-.17452A.67054.67054,0,0,1,1.96161.965.50819.50819,0,0,1,2.02552.73678C2.03015.72818,2.018.72191,2.0125.72949a.49893.49893,0,0,0-.081.17476.5168.5168,0,0,0-.00869.1776,1.26063,1.26063,0,0,0,.1153.35288.56981.56981,0,0,1,.05354.19113.28.28,0,0,1-.00936.08984.34572.34572,0,0,1-.04567.09653c-.00524.0081.00645.01535.01281.00958a.27474.27474,0,0,0,.08935-.14223A.33064.33064,0,0,0,2.12813,1.51951Z" fill="#000000"/><path d="M2.558,1.30616a.119.119,0,0,0-.13525.038.0181.0181,0,0,0,.02146.02492l.00491.00316a.05788.05788,0,0,0,.06149.03582.07.07,0,0,0,.06059-.0576l.00437-.00814A.02557.02557,0,0,0,2.558,1.30616Z" fill="#000000"/></g><text x="0" y="20" fill="#000000" font-size="5px" font-weight="bold" font-family="'Helvetica Neue', Helvetica, Arial-Unicode, Arial, Sans-serif">Created by Alice Noir</text><text x="0" y="25" fill="#000000" font-size="5px" font-weight="bold" font-family="'Helvetica Neue', Helvetica, Arial-Unicode, Arial, Sans-serif">from the Noun Project</text></svg>