<svg xmlns="http://www.w3.org/2000/svg" data-name="Layer 1" viewBox="0 0 5 6.25" x="0px" y="0px"><title>icon</title><g><path d="M2.51919.94055A.23313.23313,0,0,0,2.458.90888a.32611.32611,0,0,0-.07039-.0121.36184.36184,0,0,0-.14327.01776.312.312,0,0,0-.20292.19371.24477.24477,0,0,0,.00508.14839.26565.26565,0,0,0,.09118.11612.53531.53531,0,0,1,.05167.04711l.00542.00614.00067.0008.00082.00112.009.01329.004.007.00227.00467.00491.0153.00123.00611.00056.005a.13418.13418,0,0,1,.00007.01841l-.00013.00181-.0005.00277L2.21556,1.512l-.00274.0091-.0006.00166-.00214.00456a.11792.11792,0,0,1-.04113.04528.78226.78226,0,0,0-.12877.08712.20571.20571,0,0,0-.06337.11446c-.00771.06929.05.12509.09116.1732a.27316.27316,0,0,1,.05148.07854.09865.09865,0,0,1-.01506.09257c-.0281.04026-.0785.059-.098.10661a.13555.13555,0,0,0,.03905.15366.40439.40439,0,0,0,.13255.05137.134.134,0,0,1,.05384.03415.20864.20864,0,0,1,.04322.06659.12775.12775,0,0,1-.01649.14249.81305.81305,0,0,1-.10108.06551.06224.06224,0,0,0-.03119.0587.17181.17181,0,0,0,.06077.08772c.0051.00471.01156-.00249.00735-.00756-.021-.02555-.0678-.07482-.03361-.1072a.19373.19373,0,0,1,.04344-.0268.47051.47051,0,0,0,.05442-.03207.15209.15209,0,0,0,.04893-.05345.15006.15006,0,0,0,.014-.0778.26966.26966,0,0,0-.06648-.15364.26048.26048,0,0,0-.126-.069L2.1139,2.35225l-.00566-.00214-.00475-.00205-.01381-.00713L2.0831,2.33684l-.0019-.00128L2.0787,2.33352a.05468.05468,0,0,1-.017-.02079l-.00246-.005-.00253-.00726L2.05116,2.2778a.08791.08791,0,0,1,.01251-.06252A.37691.37691,0,0,1,2.107,2.1604a.16063.16063,0,0,0,.04683-.1083c-.001-.06877-.06025-.12077-.09933-.17059A.23966.23966,0,0,1,2.027,1.84074a.15358.15358,0,0,1-.01286-.03787.08037.08037,0,0,1,.00549-.04325l.01128-.021a.18542.18542,0,0,1,.01982-.02483.413.413,0,0,1,.12955-.07644.17313.17313,0,0,0,.10121-.122.17034.17034,0,0,0-.052-.14863c-.03136-.03276-.07065-.05727-.1003-.09192l-.00313-.004-.00443-.00648L2.115,1.25306l-.00264-.00579-.00328-.00882-.0062-.02038-.00374-.01718L2.0989,1.19963l-.00015-.00138-.00089-.00836A.19692.19692,0,0,1,2.098,1.15455l.00011-.00136.00009-.00052.00121-.0078.00339-.01534.00458-.01491L2.109,1.11l.00287-.00692a.21172.21172,0,0,1,.01459-.0276l.00875-.01312.0008-.00112.00067-.00084.00672-.00828a.26318.26318,0,0,1,.02215-.02336l.01212-.01083.0038-.00316.00739-.0056A.40654.40654,0,0,1,2.24844.97279.44878.44878,0,0,1,2.31074.94913.33343.33343,0,0,1,2.37705.93631a.27893.27893,0,0,1,.06747.00253A.3286.3286,0,0,1,2.51334.955C2.52211.95844,2.526.94519,2.51919.94055Z" fill="#000000"/><path d="M3.29226.88073A.33726.33726,0,0,0,3.17268.72287.22208.22208,0,0,0,2.99808.68066c-.12289.02611-.17469.11694-.14971.10681A.48469.48469,0,0,1,3.04324.737a.20875.20875,0,0,1,.15513.09215.2084.2084,0,0,1,.04595.167.1009.1009,0,0,1-.01392.03415l-.00852.01031-.00627.00609-.00424.00357-.001.00078c-.01887.01444-.04046.02492-.05961.039a.11981.11981,0,0,0-.05234.075.13572.13572,0,0,0,.02747.09418.63886.63886,0,0,1,.0504.08679.09813.09813,0,0,1-.00218.09163.376.376,0,0,1-.05353.05863.163.163,0,0,0-.04162.08111.45827.45827,0,0,0,.01279.17787.32841.32841,0,0,1,.00854.07439.10139.10139,0,0,1-.00387.03142.09979.09979,0,0,1-.01433.03411.2154.2154,0,0,1-.06274.0603.14485.14485,0,0,0-.06213.067.157.157,0,0,0,.00635.10028.08292.08292,0,0,1,.00549.03464l-.00584.01952c.00233-.00661-.0008.00145-.00117.00227l-.0048.00923-.00711.01113-.00709.00841a.22105.22105,0,0,1-.02291.02159l-.003.00238L2.91314,2.235l-.01156.00871-.0292.02237a.17121.17121,0,0,0-.06888.11232.41314.41314,0,0,0,.0281.16838.31309.31309,0,0,1,.015.07108.13412.13412,0,0,1-.00011.01746l0,.0016-.00026.00132-.00162.00832-.00229.00819-.0019.00493-.00893.01511-.00389.00443-.007.00707-.01385.01089-.0169.00981-.00434.0021-.007.00292c-.022.00877-.045.01515-.06767.02194a.28835.28835,0,0,0-.13266.06784.1794.1794,0,0,0-.02892.16025l.00365.01638.0016.008.00035.0016L2.555,2.99a.09562.09562,0,0,1-.00086.03242.14834.14834,0,0,1-.04679.07076.22965.22965,0,0,1-.1309.06754A.12309.12309,0,0,1,2.254,3.095c-.00274-.00475-.00916-.00045-.00707.00426a.13265.13265,0,0,0,.11016.08377.2454.2454,0,0,0,.14214-.04031A.2184.2184,0,0,0,2.606,3.01233a.24006.24006,0,0,0,0-.07359.17079.17079,0,0,1,.00361-.07134l.00207-.00488L2.6155,2.8556l.003-.00471.00283-.00344.01109-.01089.00067-.00073.00119-.0008L2.64316,2.829l.0142-.00817.0075-.00372L2.66944,2.815l.03363-.01234A.53511.53511,0,0,0,2.84258,2.749a.15056.15056,0,0,0,.06522-.14986c-.00741-.05524-.0306-.10637-.04093-.161l-.001-.006L2.86508,2.425,2.864,2.40466,2.86421,2.395l.00043-.00616L2.8683,2.372l.00235-.00752L2.871,2.36338l.00041-.00091.00687-.013.00389-.00607.00054-.00075.00039-.00052L2.894,2.32991l.0195-.01755.00875-.00676.01344-.01009A.37773.37773,0,0,0,2.986,2.2529a.1799.1799,0,0,0,.03819-.06311A.15116.15116,0,0,0,3.01874,2.091a.08362.08362,0,0,1-.00545-.03562l.001-.00817.00082-.00279.002-.00629L3.0212,2.0314c-.0027.004.00421-.00421.00514-.0051l.011-.00867.01675-.01145a.41144.41144,0,0,0,.04305-.03443.19672.19672,0,0,0,.063-.16172c-.00359-.05576-.02261-.111-.02622-.16347a.18042.18042,0,0,1,.00778-.07733.20531.20531,0,0,1,.0493-.06038.17936.17936,0,0,0,.05219-.08749.17144.17144,0,0,0-.01878-.11083.88074.88074,0,0,0-.05206-.0882.11441.11441,0,0,1-.01593-.03477l-.00045-.01117.00285-.0105L3.16276,1.159a.16534.16534,0,0,1,.05193-.04024.205.205,0,0,0,.05889-.04846A.20381.20381,0,0,0,3.29226.88073Z" fill="#000000"/><path d="M2.13573,1.49929a.22819.22819,0,0,0-.0858.00054.21311.21311,0,0,0-.07605.03078.2981.2981,0,0,0-.10473.14407,3.209,3.209,0,0,1-.15366.41359c-.03607.06765-.08022.13091-.11848.19736s-.07244.13512-.1091.20253a.8838.8838,0,0,0-.04653.09987.4076.4076,0,0,0-.02418.077.15917.15917,0,0,0,.00151.073.21092.21092,0,0,0,.04791.0721c.01366.01666.02887.032.04281.04841.01411.01671.02732.034.04026.05154.02565.03458.04995.07013.07562.10469a.74082.74082,0,0,0,.08314.09661.4144.4144,0,0,0,.05064.03934.48458.48458,0,0,0,.0592.03121.0067.0067,0,0,0,.00659-.01167.374.374,0,0,1-.0389-.02985.45191.45191,0,0,1-.037-.03294c-.02226-.02189-.04318-.04528-.06311-.06916C1.64567,2.99,1.6115,2.93695,1.574,2.88653c-.01945-.02619-.0397-.05183-.06138-.07621a.46736.46736,0,0,1-.031-.03683.15546.15546,0,0,1-.01614-.03708.12083.12083,0,0,1-.01014-.06147.37811.37811,0,0,1,.02276-.07739A1.84773,1.84773,0,0,1,1.567,2.38941c.03514-.06745.07547-.13253.1163-.19663.02079-.0327.04279-.0646.06244-.09795.01891-.032.0359-.065.05172-.0986.03114-.06633.05855-.13363.08442-.20212a.69433.69433,0,0,1,.09144-.19671.23472.23472,0,0,1,.06555-.0587.21375.21375,0,0,1,.0952-.02518C2.14189,1.51323,2.144,1.50067,2.13573,1.49929Z" fill="#000000"/><path d="M1.79575,2.60548l.0231-.02889c.03276-.03884.07132-.07348.10116-.11465a.23062.23062,0,0,0,.034-.05939c.00138-.00413-.00428-.0056-.0064-.00257a.20138.20138,0,0,1-.04065.03834c-.01965.01515-.03934.03047-.05844.0464a.64629.64629,0,0,0-.10733.09961.10835.10835,0,0,0-.0265.06056.04158.04158,0,0,0,.00264.01485l.00274.00618-.00132-.00149.00389.00945a.1118.1118,0,0,0,.02019.028c.01751.01936.03778.0362.057.05379a.21572.21572,0,0,1,.04556.06246.47392.47392,0,0,0,.084.14212.00664.00664,0,0,0,.01024-.00817c-.016-.03225-.03114-.06492-.04584-.09769A.66858.66858,0,0,0,1.84779,2.764a.57643.57643,0,0,0-.04595-.056A.31323.31323,0,0,1,1.78,2.67961a.08035.08035,0,0,1-.012-.02278l.00091-.0022.003-.00975L1.7726,2.643l.00158-.00374.00735-.01314.00774-.012.00326-.0045Z" fill="#000000"/><path d="M3.52615,1.81755a.23575.23575,0,0,0-.093-.15842.32048.32048,0,0,0-.18038-.032.09626.09626,0,0,1-.02715-.007l-.00143.00551c.01478.00482.029.00893.04327.015a.42255.42255,0,0,0,.04536.01454.29086.29086,0,0,1,.08178.03694.22.22,0,0,1,.08165.14366.42241.42241,0,0,1-.01383.19453c-.01.036-.02239.07119-.03384.10679-.012.03737-.0212.07525-.0298.11357-.0088.03879-.01772.07752-.02853.11584-.01074.03866-.02472.07629-.03546.11506a1.61075,1.61075,0,0,0-.04651.236,1.9235,1.9235,0,0,0-.012.24c.00019.08113.00216.16192.00614.24294.00382.07931.00709.15859.006.238-.00048.03925-.00084.07871-.0046.11781-.00322.034-.00908.06778-.0147.10138a.4639.4639,0,0,0,.04618.3837l.003.00348c.006.0072.01943-.00073.01573-.00949a.68968.68968,0,0,1-.03659-.10132.37272.37272,0,0,1-.00957-.09449,1.23521,1.23521,0,0,1,.02879-.19047.96436.96436,0,0,0,.01348-.22554c-.0046-.07949-.01532-.15852-.02085-.23795a2.16227,2.16227,0,0,1,.02427-.48094,1.85688,1.85688,0,0,1,.05187-.23518c.01126-.03834.02555-.07571.03523-.11454s.0174-.07785.0257-.11688a1.0878,1.0878,0,0,1,.03-.11169c.01163-.03557.02336-.071.03259-.10724a.92088.92088,0,0,0,.01833-.10888A.33554.33554,0,0,0,3.52615,1.81755Z" fill="#000000"/><path d="M3.078,3.68929c-.00737-.03793-.017-.0753-.02706-.11264-.02019-.07515-.04281-.14984-.05615-.22665a.89894.89894,0,0,1-.00143-.236c.01422-.16049.03024-.32057.04921-.48063a4.61991,4.61991,0,0,0,.04087-.47752.00425.00425,0,0,0-.00834-.001c-.03266.16177-.0627.32377-.0887.48681a3.30146,3.30146,0,0,0-.04817.45286l-.01737.05626a1.22051,1.22051,0,0,0-.03739.16561A.52721.52721,0,0,0,2.89,3.4819c.00968.05429.02732.10666.041.16A.00651.00651,0,0,0,2.94372,3.64c-.0027-.05323-.00817-.10631-.01427-.15924a.61481.61481,0,0,1-.00261-.15785c.0037-.02526.00869-.05027.01437-.07525a.9984.9984,0,0,0,.01554.12312c.01494.07644.03737.1512.05743.22639.00949.03577.01826.07173.02542.1081.00687.0351.10912.33767.10962.35885a.232.232,0,0,1-.0319.10555.62272.62272,0,0,0-.05018.10581c-.00629.02075.026.02892.03248.00843.02375-.07567.09345-.13389.094-.217C3.19382,4.02586,3.085,3.72508,3.078,3.68929Z" fill="#000000"/><path d="M2.993,3.9037A1.27385,1.27385,0,0,0,2.78245,3.804c-.04742-.0166-.37973-.12918-.43417-.15613a.78423.78423,0,0,1-.24554-.18122.56357.56357,0,0,1-.122-.25L2.0101,3.1899a.94124.94124,0,0,0,.237-.30421c.00936-.02179.01692-.0442.02533-.06624.00214-.00579-.00735-.00955-.00994-.00406a.54492.54492,0,0,1-.05094.08085c-.01835.02574-.03853.05051-.05913.07441a1.56579,1.56579,0,0,1-.13737.13681c-.095.08591-.19693.16389-.29055.25124a.58608.58608,0,0,0-.18785.35245.39092.39092,0,0,0,.02669.19412.2565.2565,0,0,0,.10676.12407.33816.33816,0,0,0,.099.03953.01025.01025,0,0,0,.00754-.01876.56408.56408,0,0,1-.13639-.0893A.2675.2675,0,0,1,1.583,3.79562a.508.508,0,0,1,.1416-.34847,1.11209,1.11209,0,0,1,.11113-.10542l.02114.00406.01024.00143.0003.00006.00087.00017.01325.00227.011.00331.0005.00017.00065.00028.00521.00251.01018.00584.00488.00322.00093.00063.002.00164.01811.01727.0064.00748.00871.0118.0147.02382.00663.01279.00318.00653.00292.00635a.48355.48355,0,0,1,.033.1185.38731.38731,0,0,1,.0016.11435.328.328,0,0,1-.009.03531l-.00545.01526-.00143.0088-.0016.00408.00324.00316c.0046-.00354.00942-.00223.01455-.007a.11328.11328,0,0,0,.01534-.01807.1511.1511,0,0,0,.01889-.04783.341.341,0,0,0,.00672-.12133.345.345,0,0,0-.10013-.22572.14355.14355,0,0,0-.06857-.033c.02773-.02369.0555-.04722.08286-.07134a.59847.59847,0,0,0,.34517.43769c.01554.00888.03138.01738.04729.02568l-.0142-.00143A.72176.72176,0,0,0,2.21874,3.689a.48589.48589,0,0,0-.06291.00957c-.024.00536-.04485.01893-.0681.026l.0008.0027a.37555.37555,0,0,1,.06672-.00156c.02127-.00021.04262-.00251.064-.00311a.81215.81215,0,0,1,.12187.00577c.04085.00508.08143.01213.12176.02023l.03743.00817q.04982.02062.10056.039c.0456.01666.09216.031.13853.04532.071.02191.13706.05638.20853.07679a.22507.22507,0,0,0,.03985.00638C2.99914,3.92534,3.00179,3.9088,2.993,3.9037Z" fill="#000000"/><path d="M2.99767,4.15587c-.00823.0124-.01809.02356-.026.03607l-.02619.04048q-.02551.03864-.05291.07592a.56381.56381,0,0,1-.1228.12652.51084.51084,0,0,1-.32829.07748.817.817,0,0,1-.33955-.08591.41692.41692,0,0,1-.13132-.10192A.30935.30935,0,0,1,1.90212,4.173a.5065.5065,0,0,1,.01076-.18412.74292.74292,0,0,1,.06531-.1812.01016.01016,0,0,0-.01766-.01.92542.92542,0,0,0-.08755.162.46547.46547,0,0,0-.03268.17932.36823.36823,0,0,0,.04923.17754A.41375.41375,0,0,0,2.019,4.449a.76384.76384,0,0,0,.34363.11569.67593.67593,0,0,0,.35133-.0405.494.494,0,0,0,.17951-.151.86661.86661,0,0,0,.0662-.09868c.01-.01705.01945-.03436.02872-.05183.0099-.01861.0174-.038.02645-.057A.00991.00991,0,0,0,2.99767,4.15587Z" fill="#000000"/><path d="M3.35388,4.12326a.00856.00856,0,0,0-.0164.00021c-.0048.02159-.00767.04325-.01163.06473a.09334.09334,0,0,0-.00724.03337l-.00456.015a.18722.18722,0,0,1-.07659.08833,1.00472,1.00472,0,0,0-.21934.16032c-.00264.00331.00087.00847.0048.00605.08126-.0504.17376-.08051.25282-.13434a.27139.27139,0,0,0,.039-.03186l-.00127.04078a.21331.21331,0,0,0,.00205.06112l.00905.00229a.141.141,0,0,0,.0225-.05481.44112.44112,0,0,0,.012-.06408c.00253-.02166.00372-.04335.0046-.065.00028-.00836.0006-.0172.00015-.02593A.34184.34184,0,0,0,3.35388,4.12326Z" fill="#000000"/><path d="M3.1536.74092a.42443.42443,0,0,0-.19349-.26A.495.495,0,0,0,2.63771.4372a.72729.72729,0,0,0-.31735.12861.45754.45754,0,0,0-.19192.273c-.00285.01593-.00326.03186-.00506.04789-.00058.0048.00737.00562.00832.001a.33964.33964,0,0,1,.0311-.07707A.42608.42608,0,0,1,2.20595.74228a.5835.5835,0,0,1,.1206-.113.72729.72729,0,0,1,.305-.12844L2.63871.49972l.00607-.001L2.6643.49627C2.67869.49434,2.693.493,2.70757.492a.53391.53391,0,0,1,.081.0008l.03255.00469c.01213.0022.02408.00506.03594.00841a.29952.29952,0,0,1,.06438.0254c.01053.00532.02071.01132.03071.01764a.27521.27521,0,0,1,.025.01774A.45949.45949,0,0,1,3.03292.619a.88887.88887,0,0,1,.094.13354A.01475.01475,0,0,0,3.1536.74092Z" fill="#000000"/><path d="M2.4128,2.36414c-.02005-.02384-.04381-.04428-.06434-.06767a.05748.05748,0,0,1-.01472-.06389c.00856-.0314.02427-.06032.03369-.09146a.36453.36453,0,0,0,.02-.10337.14609.14609,0,0,0-.03862-.09769.71625.71625,0,0,0-.056-.0491.05642.05642,0,0,1-.021-.05425l0-.00063.00039-.0019.00127-.0067.00361-.0129.0016-.004.00192-.00426.00746-.01329a.2953.2953,0,0,1,.079-.073.45319.45319,0,0,0,.09168-.078.158.158,0,0,0,.03592-.11792A.409.409,0,0,0,2.446,1.38215c-.01011-.0196-.021-.03875-.03177-.058l-.01392-.02585L2.39389,1.2858l-.003-.00612L2.38822,1.274l-.00789-.02176-.003-.01163-.00045-.00251-.00067-.00564L2.376,1.22116,2.37612,1.219l.00054-.00385L2.37954,1.204l.00115-.00313.00255-.00532L2.39,1.18448l.00069-.001.00073-.001.00473-.0056A.17923.17923,0,0,1,2.41943,1.155c.02553-.0198.05425-.034.07776-.05626.01528-.01433-.0019-.03378-.01876-.03116a.19912.19912,0,0,0-.08677.04156.2086.2086,0,0,0-.05081.05273.12807.12807,0,0,0-.01063.10918.5478.5478,0,0,0,.05632.10914.498.498,0,0,1,.05706.12559.1538.1538,0,0,1,.00562.02961.09733.09733,0,0,1-.00151.02762l-.00341.01321-.002.0054L2.44083,1.585l-.00616.01163-.00352.0056-.00346.0051a.35858.35858,0,0,1-.08452.07307c-.018.01288-.03555.02624-.05025.03828a.23229.23229,0,0,0-.03968.04011.13309.13309,0,0,0-.023.13592c.02326.048.083.06481.09946.11528a.16376.16376,0,0,1-.00778.09416c-.00914.03177-.022.06161-.03367.09248A.12818.12818,0,0,0,2.281,2.29a.23552.23552,0,0,0,.05885.07456.41166.41166,0,0,1,.06.06525.45073.45073,0,0,1,.051.09388.22149.22149,0,0,1-.02371.21288l.00482.00467a.34014.34014,0,0,0,.056-.09053.22267.22267,0,0,0,.01022-.09792A.36756.36756,0,0,0,2.4128,2.36414Z" fill="#000000"/><path d="M3.54821,2.39407c-.01394-.03266-.03153-.06367-.0472-.09548-.015-.03054-.02833-.06207-.044-.09213-.00566-.01083-.02157-.00478-.02181.00625a.46617.46617,0,0,0,.055.17677.42345.42345,0,0,1,.04476.173.20131.20131,0,0,1-.04253.12271.1829.1829,0,0,1-.12468.06522c-.00365.00028-.00493.00631-.0008.00687A.1849.1849,0,0,0,3.514,2.72247a.20748.20748,0,0,0,.07026-.13754A.37072.37072,0,0,0,3.54821,2.39407Z" fill="#000000"/><path d="M2.453,3.20876a.2018.2018,0,0,0-.05157.08729.42046.42046,0,0,1-.04891.08753.0112.0112,0,0,0,.016.01565.25153.25153,0,0,0,.06112-.07772l.02377-.04428A.17649.17649,0,0,0,2.47619,3.226C2.47843,3.214,2.465,3.19995,2.453,3.20876Z" fill="#000000"/><path d="M2.80136,1.61271a1.41658,1.41658,0,0,1-.09319-.17623A.16266.16266,0,0,1,2.703,1.29414l.0027-.00393.00447-.00549.01541-.01761c.0121-.01329.025-.02587.03683-.03929.02676-.03065.051-.06289.07467-.09594a.16138.16138,0,0,0,.03717-.09144A.0786.0786,0,0,0,2.81115.97009.18737.18737,0,0,0,2.76242.96356a.01537.01537,0,0,0-.00361.03013.1958.1958,0,0,1,.05719.02092l.00391.00261.00216.00184.00525.00521.00313.005.00223.00715v.00026l.00017.00441-.00017.00452v.00017l0,.00039-.0022.00947L2.829,1.06047l-.00075.0022-.00043.001A.22362.22362,0,0,1,2.8019,1.107a.74987.74987,0,0,1-.07956.08193.548.548,0,0,0-.06657.07562.191.191,0,0,0-.01109.15753.8755.8755,0,0,0,.0904.18414c.01575.02779.03162.05559.047.08362a.13189.13189,0,0,1,.01688.07949.19307.19307,0,0,1-.03484.08316.46882.46882,0,0,1-.05959.06877.87059.87059,0,0,0-.06788.0719.35116.35116,0,0,0-.05055.08262.26027.26027,0,0,0-.00659.17787.78484.78484,0,0,0,.04.09393.31789.31789,0,0,1,.02477.09691.50257.50257,0,0,1-.02451.20884l-.00434.01221c-.00192.005.00557.00724.00828.00331a.39411.39411,0,0,0,.07035-.20011.3475.3475,0,0,0-.012-.10523.99567.99567,0,0,0-.03715-.09676.22339.22339,0,0,1-.00735-.15924.42281.42281,0,0,1,.10975-.14474.35756.35756,0,0,0,.10393-.16594.1786.1786,0,0,0-.00553-.10147A.57588.57588,0,0,0,2.80136,1.61271Z" fill="#000000"/></g><text x="0" y="20" fill="#000000" font-size="5px" font-weight="bold" font-family="'Helvetica Neue', Helvetica, Arial-Unicode, Arial, Sans-serif">Created by Alice Noir</text><text x="0" y="25" fill="#000000" font-size="5px" font-weight="bold" font-family="'Helvetica Neue', Helvetica, Arial-Unicode, Arial, Sans-serif">from the Noun Project</text></svg>