<svg xmlns="http://www.w3.org/2000/svg" xmlns:xlink="http://www.w3.org/1999/xlink" version="1.1" x="0px" y="0px" viewBox="0 0 100 125" enable-background="new 0 0 100 100" xml:space="preserve"><path fill="#000000" d="M69.216,9.277c-7.436,0-14.169,3.5-19.212,9.931c-5.032-6.42-11.761-9.931-19.186-9.931  c-12.586,0-26.173,10.783-26.173,28.196c0,17.165,15.01,29.237,26.045,38.114c4.223,3.39,7.312,5.793,9.717,7.66  c4.008,3.106,6.021,4.676,8.19,6.884c0.374,0.38,0.876,0.592,1.406,0.592c0.529,0,1.037-0.212,1.404-0.592  c2.869-2.904,5.268-4.766,12.411-10.292l5.463-4.239c9.115-7.06,26.072-20.231,26.072-38.313  C95.354,19.985,81.789,9.277,69.216,9.277z M52.482,62.823v3.706c0,0.533-0.486,0.978-1.091,0.978h-3.072  c-0.603,0-1.104-0.444-1.104-0.978v-3.41c-2.623-0.204-5.266-0.972-6.961-2.038c-0.393-0.256-0.55-0.714-0.389-1.116l1.167-2.909  c0.109-0.281,0.365-0.499,0.688-0.592c0.314-0.104,0.661-0.053,0.944,0.109c1.826,1.066,4.221,1.697,6.382,1.697  c2.821,0,4.721-1.312,4.721-3.268c0-1.792-1.406-3.028-4.84-4.271c-4.307-1.505-8.741-3.683-8.741-8.438  c0-3.833,2.844-6.814,7.331-7.778v-3.545c0-0.539,0.488-0.972,1.093-0.972h3.075c0.596,0,1.087,0.433,1.087,0.972v3.297  c2.132,0.18,4.035,0.694,5.792,1.58c0.466,0.233,0.681,0.737,0.483,1.188l-1.207,2.865c-0.12,0.26-0.347,0.466-0.657,0.575  c-0.298,0.088-0.636,0.063-0.913-0.075c-0.963-0.491-2.751-1.387-5.607-1.387c-3.02,0-4.09,1.446-4.09,2.797  c0,1.568,1.211,2.477,5.394,4.057c5.763,2.088,8.237,4.715,8.237,8.783C60.204,58.663,57.134,61.861,52.482,62.823z"/><text x="0" y="115" fill="#000000" font-size="5px" font-weight="bold" font-family="'Helvetica Neue', Helvetica, Arial-Unicode, Arial, Sans-serif">Created by Nick Kinling</text><text x="0" y="120" fill="#000000" font-size="5px" font-weight="bold" font-family="'Helvetica Neue', Helvetica, Arial-Unicode, Arial, Sans-serif">from the Noun Project</text></svg>