<svg xmlns="http://www.w3.org/2000/svg" xmlns:xlink="http://www.w3.org/1999/xlink" version="1.1" x="0px" y="0px" viewBox="0 0 300 375" style="enable-background:new 0 0 300 300;" xml:space="preserve"><g><g><path d="M150,242c-62.9,0-114-51.1-114-114C36,65.1,87.1,14,150,14c62.9,0,114,51.1,114,114C264,190.9,212.9,242,150,242z M150,30    c-54,0-98,44-98,98c0,54,44,98,98,98c54,0,98-44,98-98C248,74,204,30,150,30z"/></g><g><path d="M260.5,273.5h-220c-4.4,0-8-3.6-8-8s3.6-8,8-8h220c4.4,0,8,3.6,8,8S264.9,273.5,260.5,273.5z"/></g><g><g><path d="M118.4,128.5c-11.1,3.3-7.5,6.7-4.8,9c2.9,2.5,15.7,8.4,36.4,8.4c20.7-0.1,33.5-5.9,36.4-8.4c2.7-2.3,6.3-5.7-4.8-9     c-10.9-1.7-13.7-2.8-31.6-2.8C132.1,125.8,129.3,126.8,118.4,128.5z"/></g><g><path d="M217.8,78.4c-3.3,6.7-10.2,11.4-18.2,11.4c-11.1,0-20.2-9-20.2-20.2c0-6.8,3.4-12.9,8.6-16.5C176.6,47.3,163.7,44,150,44     c-46.4,0-84,37.6-84,84s37.6,84,84,84s84-37.6,84-84C234,109.4,228,92.3,217.8,78.4z M163.8,169.4L163.8,169.4     c-0.1,0-0.3,0-0.4,0c-0.1,0-0.2,0-0.2,0c-5.2,0-9.9-2.2-13.2-5.7c-3.3,3.5-8,5.7-13.2,5.7c-0.1,0-0.1,0-0.2,0c-0.1,0-0.3,0-0.4,0     l0,0c-11-1.4-48.3-36.5-48.3-36.5s37.4-25.7,48.3-26.7l0,0c0.1,0,0.3,0,0.4,0c0.1,0,0.2,0,0.3,0c5.2,0,9.9,2.2,13.2,5.7     c3.3-3.5,8-5.7,13.2-5.7c0.1,0,0.2,0,0.3,0c0.1,0,0.3,0,0.4,0l0,0c11,1,48.3,26.7,48.3,26.7S174.8,168.1,163.8,169.4z"/></g></g></g><text x="0" y="315" fill="#000000" font-size="5px" font-weight="bold" font-family="'Helvetica Neue', Helvetica, Arial-Unicode, Arial, Sans-serif">Created by Angelo Troiano</text><text x="0" y="320" fill="#000000" font-size="5px" font-weight="bold" font-family="'Helvetica Neue', Helvetica, Arial-Unicode, Arial, Sans-serif">from the Noun Project</text></svg>