<?xml version="1.0" standalone="no"?>
<!DOCTYPE svg PUBLIC "-//W3C//DTD SVG 20010904//EN"
 "http://www.w3.org/TR/2001/REC-SVG-20010904/DTD/svg10.dtd">
<svg version="1.0" xmlns="http://www.w3.org/2000/svg"
 width="247.000000pt" height="247.000000pt" viewBox="0 0 247.000000 247.000000"
 preserveAspectRatio="xMidYMid meet">
<metadata>
Created by potrace 1.11, written by Peter Selinger 2001-2013
</metadata>
<g transform="translate(0.000000,247.000000) scale(0.100000,-0.100000)"
fill="#000000" stroke="none">
<path d="M541 2348 c-171 -19 -321 -100 -416 -224 -151 -196 -157 -478 -15
-753 70 -136 171 -265 328 -421 157 -155 190 -185 476 -420 115 -95 226 -188
247 -208 21 -19 48 -41 60 -50 22 -15 19 -17 104 63 12 11 41 36 66 56 451
371 522 431 649 559 210 210 349 419 395 595 27 100 28 106 28 220 0 176 -52
307 -169 420 -54 54 -147 111 -229 140 -36 13 -185 32 -223 29 -168 -15 -281
-57 -412 -154 -58 -43 -93 -79 -172 -174 l-24 -28 -29 42 c-40 58 -161 168
-229 209 -121 73 -303 114 -435 99z"/>
</g>
</svg>
