<?xml version="1.0" standalone="no"?>
<!DOCTYPE svg PUBLIC "-//W3C//DTD SVG 20010904//EN"
 "http://www.w3.org/TR/2001/REC-SVG-20010904/DTD/svg10.dtd">
<svg version="1.0" xmlns="http://www.w3.org/2000/svg"
 width="214.000000pt" height="214.000000pt" viewBox="0 0 214.000000 214.000000"
 preserveAspectRatio="xMidYMid meet">
<metadata>
Created by potrace 1.11, written by Peter Selinger 2001-2013
</metadata>
<g transform="translate(0.000000,214.000000) scale(0.100000,-0.100000)"
fill="#000000" stroke="none">
<path d="M1052 1874 c-105 -30 -196 -116 -256 -239 -41 -84 -76 -162 -76 -169
0 -3 -11 -29 -24 -58 -21 -44 -72 -165 -154 -358 l-14 -35 -19 40 c-46 100
-189 458 -189 474 0 22 35 55 49 46 6 -3 11 -1 11 4 0 12 5 12 -217 14 -95 1
-162 -2 -160 -7 2 -5 11 -10 21 -12 42 -6 69 -39 118 -142 73 -156 160 -344
214 -461 87 -193 122 -256 129 -236 17 50 62 158 101 240 22 50 87 191 144
315 165 364 194 420 250 477 53 55 116 90 174 100 20 3 36 10 36 15 0 12 -87
7 -138 -8z"/>
<path d="M950 1582 c0 -4 12 -9 28 -10 15 -1 35 -11 45 -23 15 -19 17 -53 17
-378 -1 -389 1 -379 -61 -405 -32 -14 -32 -15 -9 -16 91 -5 154 -27 369 -132
262 -127 337 -152 476 -152 105 -1 114 1 176 32 60 29 139 99 139 123 0 12 -5
11 -48 -7 -20 -9 -46 -18 -57 -20 -31 -8 -165 -7 -220 0 -178 25 -544 132
-569 167 -10 15 -13 94 -12 394 1 415 -2 396 69 422 27 9 0 12 -155 12 -104 1
-188 -3 -188 -7z"/>
</g>
</svg>
